<svg xmlns="http://www.w3.org/2000/svg" width="24" height="24" viewBox="0 0 24 24"><path d="M0 0h24v24H0z" fill="none"/><path d="M22.46 6c-.77.35-1.6.58-2.46.67.88-.53 1.56-1.37 1.88-2.38-.83.49-1.75.85-2.72 1.04C18.37 4.5 17.26 4 16 4c-2.35 0-4.27 1.92-4.27 4.29 0 .34.04.67.11.98C8.28 9.09 5.11 7.38 3 4.79c-.37.63-.58 1.37-.58 2.15 0 1.49.75 2.81 1.91 3.56-.71 0-1.37-.22-1.95-.5v.03c0 2.08 1.48 3.82 3.44 4.21a4.22 4.22 0 0 1-1.94.07 4.28 4.28 0 0 0 4 2.98 8.521 8.521 0 0 1-5.33 1.84c-.34 0-.68-.02-1.01-.06C2.64 19.29 4.77 20 7.18 20c8.63 0 13.36-7.16 13.36-13.36 0-.2 0-.41-.01-.61.91-.66 1.7-1.49 2.32-2.4z"/></svg>
