<svg xmlns="http://www.w3.org/2000/svg" width="24" height="24" viewBox="0 0 24 24"><path d="M0 0h24v24H0z" fill="none"/><path d="M12 2C6.48 2 2 6.48 2 12c0 4.42 2.87 8.17 6.84 9.5.5.09.68-.22.68-.49v-1.7c-2.78.6-3.37-1.34-3.37-1.34-.46-1.16-1.11-1.47-1.11-1.47-.91-.62.07-.6.07-.6 1 .07 1.53 1.03 1.53 1.03.89 1.53 2.34 1.09 2.91.83.09-.65.35-1.09.64-1.34-2.22-.25-4.56-1.11-4.56-4.95 0-1.1.39-1.99 1.03-2.69-.1-.25-.45-1.28.1-2.65 0 0 .84-.27 2.75 1.02.79-.22 1.65-.33 2.5-.33s1.71.11 2.5.33c1.91-1.29 2.75-1.02 2.75-1.02.55 1.37.2 2.4.1 2.65.64.7 1.03 1.6 1.03 2.69 0 3.85-2.34 4.69-4.57 4.94.36.31.68.92.68 1.85v2.74c0 .27.18.58.69.49C19.13 20.17 22 16.42 22 12c0-5.52-4.48-10-10-10z"/></svg>
